<svg width="178" height="36" viewBox="0 0 178 36" fill="none" xmlns="http://www.w3.org/2000/svg">
<g clip-path="url(#clip0_367_731)">
<path d="M17.5784 31.4505C14.7059 31.4556 11.9113 30.5196 9.62422 28.7866C10.0355 26.6754 11.3409 23.0806 15.454 21.6327C18.3246 20.6913 20.7693 18.7689 22.3566 16.2049V19.5857H26.7665V10.0817C26.767 9.95089 26.7415 9.8213 26.6915 9.70037C26.6415 9.57944 26.568 9.46957 26.4753 9.37708C26.3825 9.28459 26.2723 9.21132 26.1511 9.16148C26.0298 9.11165 25.8998 9.08623 25.7686 9.0867H16.2265V13.4803H19.1235C18.3438 14.9068 16.8881 16.4902 14.1736 17.4424C9.92107 18.9331 7.56415 22.1641 6.37316 25.2239C5.14559 23.2425 4.46833 20.9712 4.41076 18.6429C4.35319 16.3146 4.91737 14.0129 6.04553 11.9735C7.17368 9.93417 8.82525 8.23051 10.831 7.03707C12.8368 5.84362 15.1247 5.20329 17.4604 5.18167V0.788086C13.9721 0.808004 10.5686 1.86236 7.68302 3.81696C4.7975 5.77156 2.56044 8.53801 1.25656 11.7642C-0.0473218 14.9905 -0.359061 18.5306 0.361019 21.934C1.0811 25.3374 2.80044 28.4503 5.30021 30.8764V30.9584H5.38962C7.87335 33.3376 11.0033 34.9368 14.3907 35.5574C17.7781 36.1781 21.2737 35.7929 24.4434 34.4496C27.6131 33.1064 30.3173 30.8643 32.2201 28.0017C34.1228 25.1392 35.1404 21.7824 35.1463 18.3482H30.7543C30.7449 21.8264 29.3525 25.159 26.8826 27.6151C24.4126 30.0713 21.0667 31.4506 17.5784 31.4505Z" fill="#33BC82"/>
<path d="M33.5624 0.773438H21.8779V5.16704H30.7906V13.9578H35.1969V2.42103C35.1969 1.98714 35.0253 1.57075 34.7193 1.26227C34.4133 0.953793 33.9976 0.778133 33.5624 0.773438Z" fill="#33BC82"/>
<path d="M62.114 5.43799H42.7686V10.9728H49.5496V31.4929H55.3293V10.9728H62.114V5.43799Z" fill="#0E5156"/>
<path d="M69.2449 12.4277C63.5225 12.4277 59.3486 16.5467 59.3486 22.2206C59.3486 27.9908 63.5868 32.017 69.6598 32.017C73.1612 32.017 75.8615 30.7689 77.6926 28.3117L73.3794 25.8368C72.8935 26.2964 72.3215 26.6561 71.6962 26.8954C71.0709 27.1346 70.4044 27.2487 69.7349 27.2312C67.3171 27.2312 65.7542 26.3182 65.0854 24.5208L65.0246 24.3496H78.4795C78.6186 23.6449 78.6868 22.9281 78.6833 22.2099C78.6941 16.6359 74.6311 12.4277 69.2449 12.4277ZM64.9531 20.3947L64.9996 20.2342C65.5396 18.2621 67.0417 17.1744 69.227 17.1744C71.305 17.1744 72.8035 18.2906 73.3436 20.2342L73.3865 20.3947H64.9531Z" fill="#0E5156"/>
<path d="M93.3793 19.792L98.0932 17.0639C97.2319 15.6297 96.0077 14.4464 94.5432 13.6327C93.0787 12.819 91.4254 12.4035 89.7491 12.4278C84.1268 12.4278 79.8887 16.6359 79.8887 22.2206C79.8887 27.8054 84.1268 32.0171 89.7491 32.0171C91.4298 32.0403 93.0868 31.62 94.5521 30.799C96.0174 29.9779 97.239 28.7852 98.0932 27.3418L93.3829 24.6528C92.7355 25.9224 91.33 26.707 89.674 26.707C87.0918 26.707 85.2892 24.8632 85.2892 22.2206C85.2892 19.5781 87.0775 17.7379 89.674 17.7379C91.3192 17.7379 92.6926 18.5153 93.3793 19.792Z" fill="#0E5156"/>
<path d="M108.554 17.3635C110.199 17.3635 111.959 18.2943 111.959 20.9047V31.4893H117.36V20.0774C117.36 14.7887 113.883 12.4242 110.439 12.4242C108.121 12.4242 106.194 13.2409 105.149 14.6638L104.924 14.9741V5.43799H99.5234V31.4893H104.924V21.3684C104.924 18.8185 106.247 17.3635 108.554 17.3635Z" fill="#0E5156"/>
<path d="M129.32 12.4277C123.597 12.4277 119.42 16.5467 119.42 22.2206C119.42 27.9908 123.662 32.017 129.735 32.017C133.232 32.017 135.936 30.7689 137.764 28.3117L133.451 25.8368C132.966 26.2965 132.394 26.6563 131.769 26.8955C131.145 27.1348 130.479 27.2489 129.81 27.2312C127.388 27.2312 125.829 26.3182 125.16 24.5208L125.099 24.3496H138.554C138.693 23.6449 138.762 22.9281 138.758 22.2099C138.765 16.6359 134.706 12.4277 129.32 12.4277ZM125.028 20.3947L125.071 20.2342C125.614 18.2621 127.117 17.1744 129.298 17.1744C131.376 17.1744 132.875 18.2906 133.415 20.2342L133.458 20.3947H125.028Z" fill="#0E5156"/>
<path d="M153.454 19.792L158.168 17.0639C157.306 15.6296 156.081 14.4464 154.616 13.6328C153.151 12.8191 151.497 12.4036 149.82 12.4278C144.198 12.4278 139.96 16.6359 139.96 22.2206C139.96 27.8054 144.198 32.0171 149.82 32.0171C151.502 32.0405 153.159 31.6204 154.625 30.7994C156.091 29.9783 157.313 28.7855 158.168 27.3417L153.458 24.6528C152.81 25.9224 151.401 26.707 149.745 26.707C147.163 26.707 145.361 24.8632 145.361 22.2206C145.361 19.5781 147.149 17.7379 149.745 17.7379C151.391 17.7379 152.767 18.5153 153.454 19.792Z" fill="#0E5156"/>
<path d="M168.136 12.4281C166.194 12.4351 164.298 13.0157 162.687 14.0966C161.076 15.1775 159.822 16.7101 159.084 18.501C158.346 20.2919 158.157 22.2607 158.54 24.1588C158.924 26.0568 159.862 27.799 161.238 29.1654C162.614 30.5317 164.365 31.4609 166.27 31.8357C168.175 32.2104 170.149 32.0138 171.942 31.2707C173.735 30.5277 175.267 29.2715 176.345 27.6608C177.422 26.0501 177.997 24.1571 177.996 22.2209C178.008 20.9284 177.76 19.6466 177.268 18.4507C176.776 17.2548 176.05 16.1689 175.131 15.2567C174.213 14.3446 173.121 13.6245 171.92 13.1388C170.718 12.653 169.432 12.4114 168.136 12.4281ZM168.136 26.7821C165.553 26.7821 163.676 24.8635 163.676 22.2209C163.676 19.5784 165.553 17.6633 168.136 17.6633C170.718 17.6633 172.596 19.5819 172.596 22.2209C172.596 24.8599 170.721 26.7821 168.136 26.7821Z" fill="#0E5156"/>
</g>
<defs>
<clipPath id="clip0_367_731">
<rect width="178" height="35.0739" fill="white" transform="translate(0 0.773438)"/>
</clipPath>
</defs>
</svg>
