<svg width="182" height="37" viewBox="0 0 182 37" fill="none" xmlns="http://www.w3.org/2000/svg">
<g clip-path="url(#clip0_397_790)">
<path d="M18.6345 31.8116C15.7142 31.8167 12.8731 30.8652 10.5481 29.1034C10.9662 26.9571 12.2934 23.3026 16.4747 21.8306C19.393 20.8736 21.8784 18.9193 23.4921 16.3126V19.7496H27.9752V10.0877C27.9757 9.95471 27.9498 9.82296 27.899 9.70002C27.8482 9.57708 27.7735 9.46539 27.6792 9.37136C27.5849 9.27734 27.4729 9.20285 27.3496 9.15218C27.2263 9.10152 27.0942 9.07568 26.9608 9.07616H17.2601V13.5428H20.2052C19.4126 14.993 17.9327 16.6027 15.173 17.5707C10.8499 19.0861 8.4538 22.3708 7.24303 25.4815C5.99506 23.4671 5.30654 21.1582 5.24802 18.7912C5.18949 16.4242 5.76305 14.0842 6.90995 12.011C8.05685 9.93771 9.73586 8.20574 11.775 6.99247C13.8141 5.77919 16.14 5.12822 18.5145 5.10625V0.639648C14.9682 0.659897 11.5081 1.73177 8.57466 3.71885C5.64118 5.70593 3.36695 8.51835 2.0414 11.7982C0.715856 15.078 0.398936 18.677 1.13098 22.1369C1.86303 25.5969 3.61094 28.7615 6.15224 31.2279V31.3113H6.24314C8.76814 33.73 11.9501 35.3558 15.3938 35.9868C18.8374 36.6177 22.3912 36.2261 25.6136 34.8606C28.8359 33.495 31.585 31.2156 33.5194 28.3055C35.4538 25.3954 36.4883 21.9828 36.4943 18.4916H32.0293C32.0197 22.0276 30.6042 25.4155 28.0932 27.9125C25.5823 30.4094 22.1807 31.8116 18.6345 31.8116Z" fill="#33BC82"/>
<path d="M34.8835 0.625H23.0049V5.09161H32.0657V14.0284H36.5452V2.29998C36.5452 1.85887 36.3707 1.43556 36.0596 1.12196C35.7485 0.808353 35.3259 0.629774 34.8835 0.625Z" fill="#33BC82"/>
<path d="M63.9091 5.36719H44.2422V10.994H51.136V31.855H57.0117V10.994H63.9091V5.36719Z" fill="white"/>
<path d="M71.1593 12.4731C65.3418 12.4731 61.0986 16.6606 61.0986 22.4287C61.0986 28.2948 65.4072 32.388 71.5811 32.388C75.1407 32.388 77.8859 31.119 79.7475 28.6211L75.3625 26.105C74.8685 26.5723 74.2871 26.938 73.6514 27.1812C73.0157 27.4244 72.3381 27.5404 71.6575 27.5226C69.1996 27.5226 67.6106 26.5944 66.9307 24.7672L66.8689 24.5932H80.5474C80.6888 23.8767 80.7582 23.148 80.7546 22.4179C80.7655 16.7512 76.6351 12.4731 71.1593 12.4731ZM66.7962 20.5725L66.8435 20.4093C67.3925 18.4045 68.9196 17.2987 71.1411 17.2987C73.2536 17.2987 74.7771 18.4335 75.3261 20.4093L75.3698 20.5725H66.7962Z" fill="white"/>
<path d="M95.6953 19.9597L100.487 17.1862C99.6119 15.7282 98.3673 14.5253 96.8785 13.698C95.3897 12.8708 93.7089 12.4484 92.0048 12.4731C86.2891 12.4731 81.9805 16.7512 81.9805 22.4287C81.9805 28.1062 86.2891 32.3879 92.0048 32.3879C93.7134 32.4115 95.3979 31.9842 96.8875 31.1496C98.3772 30.3149 99.6191 29.1023 100.487 27.6349L95.6989 24.9013C95.0408 26.1919 93.6119 26.9895 91.9284 26.9895C89.3033 26.9895 87.4707 25.1152 87.4707 22.4287C87.4707 19.7422 89.2887 17.8714 91.9284 17.8714C93.601 17.8714 94.9972 18.6618 95.6953 19.9597Z" fill="white"/>
<path d="M111.122 17.4908C112.795 17.4908 114.584 18.4371 114.584 21.091V31.8514H120.074V20.2498C120.074 14.8732 116.54 12.4695 113.038 12.4695C110.682 12.4695 108.722 13.2998 107.661 14.7463L107.432 15.0618V5.36719H101.941V31.8514H107.432V21.5623C107.432 18.97 108.777 17.4908 111.122 17.4908Z" fill="white"/>
<path d="M132.232 12.4731C126.415 12.4731 122.168 16.6606 122.168 22.4287C122.168 28.2948 126.48 32.388 132.654 32.388C136.21 32.388 138.959 31.119 140.817 28.6211L136.432 26.105C135.939 26.5723 135.358 26.9381 134.723 27.1814C134.088 27.4246 133.411 27.5405 132.73 27.5226C130.269 27.5226 128.684 26.5944 128.004 24.7672L127.942 24.5932H141.62C141.762 23.8767 141.831 23.148 141.828 22.4179C141.835 16.7512 137.708 12.4731 132.232 12.4731ZM127.869 20.5725L127.913 20.4093C128.465 18.4045 129.993 17.2987 132.21 17.2987C134.323 17.2987 135.846 18.4335 136.395 20.4093L136.439 20.5725H127.869Z" fill="white"/>
<path d="M156.768 19.9597L161.56 17.1862C160.684 15.7281 159.439 14.5253 157.949 13.6981C156.46 12.8709 154.779 12.4485 153.074 12.4731C147.358 12.4731 143.05 16.7511 143.05 22.4287C143.05 28.1062 147.358 32.3879 153.074 32.3879C154.783 32.4117 156.468 31.9847 157.959 31.15C159.449 30.3153 160.692 29.1026 161.56 27.6349L156.772 24.9012C156.114 26.1919 154.681 26.9895 152.998 26.9895C150.373 26.9895 148.54 25.1152 148.54 22.4287C148.54 19.7422 150.358 17.8714 152.998 17.8714C154.67 17.8714 156.07 18.6618 156.768 19.9597Z" fill="white"/>
<path d="M171.694 12.4731C169.72 12.4803 167.792 13.0706 166.154 14.1694C164.517 15.2682 163.242 16.8264 162.492 18.647C161.741 20.4676 161.549 22.4691 161.939 24.3988C162.329 26.3284 163.283 28.0995 164.682 29.4886C166.08 30.8776 167.86 31.8223 169.797 32.2032C171.734 32.5841 173.74 32.3843 175.563 31.6289C177.386 30.8735 178.944 29.5964 180.039 27.959C181.135 26.3215 181.719 24.3971 181.718 22.4287C181.73 21.1147 181.478 19.8116 180.978 18.5958C180.478 17.3801 179.739 16.2761 178.806 15.3488C177.872 14.4215 176.762 13.6894 175.541 13.1956C174.319 12.7018 173.012 12.4562 171.694 12.4731ZM171.694 27.0657C169.069 27.0657 167.16 25.1152 167.16 22.4287C167.16 19.7422 169.069 17.7953 171.694 17.7953C174.319 17.7953 176.228 19.7459 176.228 22.4287C176.228 25.1116 174.323 27.0657 171.694 27.0657Z" fill="white"/>
</g>
<defs>
<clipPath id="clip0_397_790">
<rect width="180.958" height="35.6567" fill="white" transform="translate(0.763672 0.625)"/>
</clipPath>
</defs>
</svg>
