<svg xmlns="http://www.w3.org/2000/svg" width="164.052" height="163.782" viewBox="0 0 164.052 163.782">
  <g id="Group_13208" data-name="Group 13208" transform="translate(-1106.96 -1857)">
    <path id="Path_26733" data-name="Path 26733" d="M579.927,2.241H521.449v0c-.091,0-.182,0-.27,0a81.894,81.894,0,1,0,81.891,81.89h.27V25.654A23.412,23.412,0,0,0,579.927,2.241" transform="translate(667.672 1854.759)" fill="#ceeae2"/>
    <g id="Group_13207" data-name="Group 13207">
      <path id="Icon_awesome-laptop" data-name="Icon awesome-laptop" d="M91.156,60.77H55.736a4.605,4.605,0,0,1-4.783,4.675H42.072a4.961,4.961,0,0,1-4.787-4.675H2.337A2.344,2.344,0,0,0,0,63.108v2.337a9.377,9.377,0,0,0,9.349,9.349H84.144a9.377,9.377,0,0,0,9.349-9.349V63.108A2.344,2.344,0,0,0,91.156,60.77ZM84.144,7.012A7.033,7.033,0,0,0,77.132,0H16.361A7.033,7.033,0,0,0,9.349,7.012V56.1H84.144ZM77.794,49.747H15.7V6.349l62.1-.107v3.35Z" transform="translate(1137 1898.494)" fill="#5caa9b"/>
      <path id="Icon_awesome-mobile-alt" data-name="Icon awesome-mobile-alt" d="M19.125,0H3.375A3.376,3.376,0,0,0,0,3.375v29.25A3.376,3.376,0,0,0,3.375,36h15.75A3.376,3.376,0,0,0,22.5,32.625V3.375A3.376,3.376,0,0,0,19.125,0ZM11.25,33.75A2.25,2.25,0,1,1,13.5,31.5,2.248,2.248,0,0,1,11.25,33.75Zm7.875-7.594a.846.846,0,0,1-.844.844H4.219a.846.846,0,0,1-.844-.844V4.219a.846.846,0,0,1,.844-.844H18.281a.846.846,0,0,1,.844.844Z" transform="translate(1230.493 1899.891)" fill="#487a80"/>
      <path id="Icon_awesome-recycle" data-name="Icon awesome-recycle" d="M12.977,18.415a1.126,1.126,0,0,1-1.692,1.207L8.42,17.832,4.844,23.556A2.254,2.254,0,0,0,6.751,27h3.655a.844.844,0,0,1,.844.844v2.813a.844.844,0,0,1-.844.844H6.758A6.754,6.754,0,0,1,1.034,21.173L4.608,15.45,1.744,13.661a1.126,1.126,0,0,1,.343-2.05L9.838,9.821a1.125,1.125,0,0,1,1.349.843l1.79,7.751Zm6.93-12.861,2.9,4.646-2.865,1.79a1.126,1.126,0,0,0,.343,2.05l7.751,1.789a1.125,1.125,0,0,0,1.349-.843l1.789-7.751a1.126,1.126,0,0,0-1.692-1.207L26.625,7.816l-2.9-4.646a6.753,6.753,0,0,0-11.448,0L11.013,5.192a.844.844,0,0,0,.269,1.162l2.385,1.49a.844.844,0,0,0,1.163-.268l1.263-2.021A2.252,2.252,0,0,1,19.907,5.554ZM34.966,21.173l-1.935-3.1a.844.844,0,0,0-1.163-.269l-2.381,1.488a.844.844,0,0,0-.268,1.163l1.938,3.1A2.254,2.254,0,0,1,29.249,27H22.5V23.626a1.126,1.126,0,0,0-1.92-.8l-5.625,5.624a1.125,1.125,0,0,0,0,1.591L20.58,35.67a1.126,1.126,0,0,0,1.92-.8V31.5h6.742A6.754,6.754,0,0,0,34.966,21.173Z" transform="translate(1166 1909)" fill="#ffac60"/>
    </g>
    <path id="Path_26734" data-name="Path 26734" d="M1238.065,1903.038l.422,3.569,3.39-1.114-2.044,7.274h2.044l-2.044,5.418,3.8,1.077V1924h2.316l-1.348-5.167-2.727-1.94,1.286-5.238h-1.286l1.286-7.167Z" fill="#5caa9b"/>
  </g>
</svg>
