<svg xmlns="http://www.w3.org/2000/svg" width="164.052" height="163.782" viewBox="0 0 164.052 163.782">
  <g id="Group_13198" data-name="Group 13198" transform="translate(-109.001 -1857)">
    <path id="Path_26656" data-name="Path 26656" d="M140.64,10.361H82.162v0c-.091,0-.182,0-.27,0a81.894,81.894,0,1,0,81.89,81.89h.27V33.774A23.412,23.412,0,0,0,140.64,10.361" transform="translate(109.001 1846.639)" fill="#ceeae2"/>
    <path id="Path_26657" data-name="Path 26657" d="M54.551,37.967a2.213,2.213,0,0,1,.711,2.365l-.257.829-8.515,1.081-.459-.741a2.215,2.215,0,0,1,.1-2.467l.632-.859,6.965-.881Z" transform="translate(167.124 1880.893)" fill="#ff6d66"/>
    <path id="Path_26658" data-name="Path 26658" d="M54.766,39.008a.613.613,0,0,1,.2,1.04l-8.71,1.1a.614.614,0,0,1-.334-.47.607.607,0,0,1,.266-.586l.032-.02L54.734,39Z" transform="translate(167.396 1883.057)" fill="#2f4d74"/>
    <path id="Path_26659" data-name="Path 26659" d="M68.2,66.013l1.036-.132a2.073,2.073,0,0,1-.15,1.068l-.311.732-21.87,2.774-.484-.632a2.085,2.085,0,0,1-.411-1l1.036-.132a3.894,3.894,0,0,0,2.217-1.07L53.29,63.7a4.166,4.166,0,0,1,2.374-1.143l2.663-.336a4.145,4.145,0,0,1,2.583.513l4.877,2.794a3.893,3.893,0,0,0,2.415.482" transform="translate(167.515 1912.554)" fill="#71b7a7"/>
    <path id="Path_26660" data-name="Path 26660" d="M67.054,55.2l5.021,39.586-1.036.132a3.9,3.9,0,0,1-2.415-.482l-4.877-2.794a4.142,4.142,0,0,0-2.581-.513l-2.665.336a4.16,4.16,0,0,0-2.372,1.143L52.1,96.534a3.9,3.9,0,0,1-2.22,1.07l-1.034.132L43.83,58.15a6.187,6.187,0,0,1,2.7-5.92l1.247-.836a4.733,4.733,0,0,0,2.058-4.582l-.859-6.247,8.71-1.1.727,6.263a4.735,4.735,0,0,0,3.135,3.923l1.418.5A6.19,6.19,0,0,1,67.054,55.2" transform="translate(164.678 1883.646)" fill="#84cbbc"/>
    <path id="Path_26661" data-name="Path 26661" d="M62.668,49.666,52.406,89.372,21,81.255,31.261,41.549a2.523,2.523,0,0,1,.273-.657L62.75,48.959a2.658,2.658,0,0,1-.082.707" transform="translate(135.706 1885.467)" fill="#723d68"/>
    <path id="Path_26662" data-name="Path 26662" d="M53.385,72.038l-1.779,6.879a2.577,2.577,0,0,1-2.12,1.906l-2.269.336a2.683,2.683,0,0,1-1.059-.055l-23.81-6.154a2.631,2.631,0,0,1-.954-.466l-1.822-1.393a2.58,2.58,0,0,1-.931-2.694l1.777-6.879,2.042,1.947a3.559,3.559,0,0,0,1.379.816l12.433,3.937L49.055,72.8a3.563,3.563,0,0,0,1.6-.045Z" transform="translate(132.603 1914.244)" fill="#cd7f43"/>
    <path id="Path_26663" data-name="Path 26663" d="M47.581,36.449,44.9,45.23a1.149,1.149,0,0,1-.136.293l-.454.684-11.92-3.081-.066-.818a1.272,1.272,0,0,1,.02-.323l1.913-8.978a3.685,3.685,0,0,1,.716-1.413l2.07-2.517a4.068,4.068,0,0,0,.8-1.57l.9-3.492,9.271,2.394-.9,3.494a4.064,4.064,0,0,0-.061,1.758l.588,3.205a3.678,3.678,0,0,1-.057,1.581" transform="translate(150.109 1864.005)" fill="#ffbc6e"/>
    <path id="Path_26664" data-name="Path 26664" d="M47.2,24.4l-1.229,4.75a.706.706,0,0,1-.861.509l-.25-.066-9.269-2.394-.252-.066a.706.706,0,0,1-.507-.861l1.229-4.75Z" transform="translate(153.266 1860.827)" fill="#723d68"/>
    <rect id="Rectangle_4537" data-name="Rectangle 4537" width="6.463" height="11.505" transform="matrix(0.25, -0.968, 0.968, 0.25, 189.324, 1882.343)" fill="#87527e"/>
    <path id="Path_26665" data-name="Path 26665" d="M44.813,36.522a.947.947,0,0,1-.091.229l-.461.838a.706.706,0,0,0-.089.341L32.034,34.793a.723.723,0,0,0,.086-.341l0-.956a.985.985,0,0,1,.532-.875.2.2,0,0,0,.1-.127.21.21,0,0,0,0-.066l11.92,3.081a.2.2,0,0,0,0,.22.991.991,0,0,1,.132.793" transform="translate(149.74 1874.703)" fill="#fba964"/>
    <path id="Path_26666" data-name="Path 26666" d="M58.184,44,27.352,36.034l10.139-2.19a.732.732,0,0,0,.5-.375L50.124,36.6a.733.733,0,0,0,.252.57Z" transform="translate(143.785 1876.027)" fill="#ef9953"/>
    <path id="Path_26667" data-name="Path 26667" d="M60.064,43.106,57.413,53.363,26.006,45.246l2.651-10.257a.536.536,0,0,1,.409-.391L59.9,42.565a.539.539,0,0,1,.168.541" transform="translate(142.074 1877.463)" fill="#cd7f43"/>
    <path id="Path_26668" data-name="Path 26668" d="M26.052,39.285,57.459,47.4a2.569,2.569,0,0,1-.627,1.131A1.9,1.9,0,0,0,56.5,49v0L26.113,41.143a1.992,1.992,0,0,0-.061-.566,2.595,2.595,0,0,1,0-1.293" transform="translate(142.028 1883.424)" fill="#723d68"/>
    <path id="Path_26669" data-name="Path 26669" d="M56.852,49.961,25.636,41.894a2.745,2.745,0,0,1,.218-.32l.252-.307a1.957,1.957,0,0,0,.432-1.163h0L56.93,47.958h0a1.945,1.945,0,0,0-.186,1.227l.07.391a2.222,2.222,0,0,1,.036.386" transform="translate(141.603 1884.465)" fill="#87527e"/>
    <rect id="Rectangle_4538" data-name="Rectangle 4538" width="1.425" height="32.439" transform="translate(156.35 1968.097) rotate(-75.498)" fill="#ef9953"/>
    <path id="Path_26670" data-name="Path 26670" d="M52.866,67.383l.457,1.449L20.357,60.311l1.1-1.045Z" transform="translate(134.89 1908.835)" fill="#cd7f43"/>
    <path id="Path_26671" data-name="Path 26671" d="M54.571,68.246l-2.226,8.615-2.728.716a3.564,3.564,0,0,1-1.6.045L35.232,75.041,22.8,71.1a3.543,3.543,0,0,1-1.379-.816l-2.042-1.947L21.6,59.727Z" transform="translate(133.643 1909.421)" fill="#ef9953"/>
  </g>
</svg>
