<svg width="60" height="60" viewBox="0 0 60 60" fill="none" xmlns="http://www.w3.org/2000/svg">
<path d="M0 30C0 13.4315 13.4315 0 30 0H54.4986C57.5369 0 60 2.46308 60 5.50143V30C60 46.5685 46.5685 60 30 60V60C13.4315 60 0 46.5685 0 30V30Z" fill="#33BC82"/>
<path d="M42.3955 22.9166L35.3122 29.9999H40.6247C40.6247 35.8614 35.8611 40.6249 29.9997 40.6249C28.2111 40.6249 26.5111 40.1822 25.0413 39.3853L22.4559 41.9707C24.6341 43.352 27.2195 44.1666 29.9997 44.1666C37.8268 44.1666 44.1663 37.827 44.1663 29.9999H49.4788L42.3955 22.9166ZM19.3747 29.9999C19.3747 24.1385 24.1382 19.3749 29.9997 19.3749C31.7882 19.3749 33.4882 19.8176 34.958 20.6145L37.5434 18.0291C35.3653 16.6478 32.7799 15.8333 29.9997 15.8333C22.1726 15.8333 15.833 22.1728 15.833 29.9999H10.5205L17.6038 37.0832L24.6872 29.9999H19.3747Z" fill="white"/>
</svg>
