<svg xmlns="http://www.w3.org/2000/svg" width="164.052" height="163.782" viewBox="0 0 164.052 163.782">
  <g id="Group_13202" data-name="Group 13202" transform="translate(-917.592 -1857)">
    <path id="Path_26722" data-name="Path 26722" d="M496.57.658H438.092v0c-.091,0-.182,0-.27,0a81.894,81.894,0,1,0,81.89,81.89h.27V24.071A23.412,23.412,0,0,0,496.57.658" transform="translate(561.661 1856.342)" fill="#ceeae2"/>
    <path id="Path_26723" data-name="Path 26723" d="M402.546,63.828l-.1.182a2.33,2.33,0,0,1-2.29,1.184l-16.8-1.833a2.331,2.331,0,0,1-1.981-1.649l-.059-.2Z" transform="translate(593.952 1933.733)" fill="#92c5c7"/>
    <path id="Path_26724" data-name="Path 26724" d="M397.143,40.475a1.822,1.822,0,0,1-.9,1.983l-9.473-1.034a1.821,1.821,0,0,1-.609-1.57,1.786,1.786,0,0,1,.157-.561l1.195-2.606,9.026.986Z" transform="translate(600.091 1902.164)" fill="#487a80"/>
    <path id="Path_26725" data-name="Path 26725" d="M396.507,37.486a.992.992,0,0,1-.325,1.088l-.2.159-9.028-.984-.157-.2a.994.994,0,0,1-.082-1.131l.334-.563,9.248,1.009Z" transform="translate(600.641 1901.104)" fill="#1d383c"/>
    <path id="Path_26726" data-name="Path 26726" d="M403.169,49.67l-19.376-2.115a11.222,11.222,0,0,1,.911-.825l4.478-3.653.582-4.305,9.471,1.034-.361,4.33,3.585,4.532a11.252,11.252,0,0,1,.711,1" transform="translate(597.096 1904.814)" fill="#92c5c7"/>
    <path id="Path_26727" data-name="Path 26727" d="M408.722,52.378,405.38,83a5.418,5.418,0,0,1-.647,2.031l-1.552,2.8-21.223-2.317-.913-3.065a5.366,5.366,0,0,1-.191-2.124L384.2,49.7a11.82,11.82,0,0,1,3.378-7.063l19.374,2.115a11.821,11.821,0,0,1,1.774,7.624" transform="translate(593.317 1909.732)" fill="#487a80"/>
    <path id="Path_26728" data-name="Path 26728" d="M405.379,61.9a5.4,5.4,0,0,1-.645,2.033l-1.552,2.794-21.225-2.317-.911-3.062a5.418,5.418,0,0,1-.193-2.124Z" transform="translate(593.317 1930.829)" fill="#92c5c7"/>
    <path id="Path_26729" data-name="Path 26729" d="M408.635,10.76l.536,4.166a1.53,1.53,0,0,1-.307,1.12l-.359.463-11.4,1.465-.463-.357a1.523,1.523,0,0,1-.582-1.009l-.534-4.164a1.516,1.516,0,0,1,1.309-1.7l10.1-1.3a1.518,1.518,0,0,1,1.7,1.311" transform="translate(612.008 1867.506)" fill="#487a80"/>
    <path id="Path_26730" data-name="Path 26730" d="M409.219,13.516v.009a1.07,1.07,0,0,1-.927,1.2l-.9.116-9.43,1.213-.9.116a1.072,1.072,0,0,1-1.2-.927v-.007a1.075,1.075,0,0,1,.6-1.1l.248-.118,11.4-1.465.27.052a1.074,1.074,0,0,1,.856.913" transform="translate(612.421 1871.467)" fill="#6d9395"/>
    <rect id="Rectangle_4541" data-name="Rectangle 4541" width="9.51" height="2.245" transform="matrix(0.992, -0.127, 0.127, 0.992, 1010.378, 1887.521)" fill="#6d9395"/>
    <rect id="Rectangle_4542" data-name="Rectangle 4542" width="29.863" height="2.776" transform="translate(1010.045 1964.719) rotate(-7.333)" fill="#6d9395"/>
    <path id="Path_26731" data-name="Path 26731" d="M428.734,53.07a4.633,4.633,0,0,1-.068,1.879l-.943,3.83a1.932,1.932,0,0,1-1.633,1.458l-24.887,3.2a1.928,1.928,0,0,1-1.949-1l-1.881-3.464a4.656,4.656,0,0,1-.541-1.8l-.414-4.712a.958.958,0,0,1,.834-1.038l29.619-3.81a.962.962,0,0,1,1.072.793Z" transform="translate(613.147 1916.048)" fill="#92c5c7"/>
    <path id="Path_26732" data-name="Path 26732" d="M424.4,28.7l.811,6.311a2.043,2.043,0,0,1-.5,1.622l-.191.209-29.619,3.807-.236-.154a2.032,2.032,0,0,1-.9-1.44l-.811-6.311a2.305,2.305,0,0,1,.275-1.429l8.73-15.559,9.432-1.213,12.383,12.845A2.309,2.309,0,0,1,424.4,28.7" transform="translate(608.713 1873.995)" fill="#92c5c7"/>
    <rect id="Rectangle_4543" data-name="Rectangle 4543" width="29.862" height="50.489" transform="matrix(0.992, -0.128, 0.128, 0.992, 1003.607, 1914.641)" fill="#ffac60"/>
  </g>
</svg>
