<svg xmlns="http://www.w3.org/2000/svg" width="164.052" height="163.782" viewBox="0 0 164.052 163.782">
  <g id="Group_13201" data-name="Group 13201" transform="translate(-717.742 -1857)">
    <path id="Path_26712" data-name="Path 26712" d="M408.6,0h-58.48V0c-.089,0-.18,0-.268,0a81.894,81.894,0,1,0,81.89,81.89h.27V23.413A23.412,23.412,0,0,0,408.6,0" transform="translate(449.783 1857)" fill="#ceeae2"/>
    <path id="Path_26713" data-name="Path 26713" d="M315.132,59.336c-.02-1.649-.05-4.135-.084-7.049A22.453,22.453,0,0,1,300.589,41.7l-6.718,2.1a29.394,29.394,0,0,0,21.261,15.534" transform="translate(482.736 1910.039)" fill="#db8f4b"/>
    <path id="Path_26714" data-name="Path 26714" d="M312.64,23.823a29.258,29.258,0,0,0-13.022,3.065l4.2,5.636a22.457,22.457,0,0,1,17.647,0l4.2-5.636a29.225,29.225,0,0,0-13.019-3.065" transform="translate(490.045 1887.297)" fill="#db8f4b"/>
    <path id="Path_26715" data-name="Path 26715" d="M299.332,48.273A22.318,22.318,0,0,1,305,33.4l-4.066-5.743a29.256,29.256,0,0,0-8.19,24.84l6.686-2.26c-.057-.65-.1-1.3-.1-1.963" transform="translate(480.916 1892.173)" fill="#db8f4b"/>
    <path id="Path_26716" data-name="Path 26716" d="M328.734,43.8l-6.722-2.095a22.44,22.44,0,0,1-14.457,10.58l-.086,7.049A29.39,29.39,0,0,0,328.734,43.8" transform="translate(500.028 1910.04)" fill="#db8f4b"/>
    <path id="Path_26717" data-name="Path 26717" d="M324.984,52.5a29.251,29.251,0,0,0-8.19-24.837L312.728,33.4a22.327,22.327,0,0,1,5.67,14.873c0,.663-.043,1.315-.1,1.963Z" transform="translate(506.718 1892.175)" fill="#db8f4b"/>
    <path id="Path_26718" data-name="Path 26718" d="M323.73,87.942a32.832,32.832,0,1,1,32.832-32.832A32.868,32.868,0,0,1,323.73,87.942M296.082,67.83a30.5,30.5,0,0,0,23.96,17.5c-.023-1.908-.082-6.727-.148-12.37-.066-5.584-3.535-9.337-8.633-9.337a11.678,11.678,0,0,0-3.458.554Zm40.115-4.21c-5.1,0-8.567,3.753-8.635,9.337l-.148,12.372a30.5,30.5,0,0,0,23.96-17.5l-11.722-3.655a11.675,11.675,0,0,0-3.455-.554M303.059,32.8a30.38,30.38,0,0,0-9.23,28.013l11.606-3.926a9.39,9.39,0,0,0,6.284-5.816,9.394,9.394,0,0,0-1.665-8.4Zm41.342,0-7,9.875a9.386,9.386,0,0,0-1.663,8.4,9.387,9.387,0,0,0,6.281,5.816l11.609,3.926A30.407,30.407,0,0,0,344.4,32.8M309.036,28.47l7.222,9.694a8.768,8.768,0,0,0,14.941,0l7.222-9.694a30.316,30.316,0,0,0-29.385,0" transform="translate(478.955 1885.334)" fill="#ffae5d"/>
    <path id="Path_26719" data-name="Path 26719" d="M309.609,33.383a7.607,7.607,0,1,0,7.606,7.606,7.617,7.617,0,0,0-7.606-7.606m0,11.875a4.268,4.268,0,1,1,4.266-4.269,4.272,4.272,0,0,1-4.266,4.269" transform="translate(493.075 1899.455)" fill="#ffae5d"/>
    <path id="Path_26720" data-name="Path 26720" d="M385.19,63.832l-.736-.788c-.039-.836-.1-1.686-.186-2.54a.449.449,0,0,0,.325.123.486.486,0,0,0,.484-.479.5.5,0,0,0-.025-.154l-.284-2.258a.48.48,0,0,0-.17-.309l-.825-.686c-.143-.829-.316-1.665-.5-2.5a.526.526,0,0,0,.275.086.482.482,0,0,0,.484-.479.462.462,0,0,0-.048-.209l-.568-2.208a.47.47,0,0,0-.207-.284l-.9-.579c-.252-.813-.527-1.62-.816-2.417a.471.471,0,0,0,.225.055.491.491,0,0,0,.486-.479.482.482,0,0,0-.077-.259l-.841-2.124a.483.483,0,0,0-.241-.257l-.981-.463c-.345-.77-.722-1.533-1.111-2.294l0,0a.5.5,0,0,0,.173.032h.007a.481.481,0,0,0,.482-.479.477.477,0,0,0-.109-.307l-1.1-2a.486.486,0,0,0-.273-.225L377.087,39c-.443-.722-.909-1.433-1.386-2.133h0a.549.549,0,0,0,.123.016.482.482,0,0,0,.482-.482.466.466,0,0,0-.148-.345L374.815,34.2a.476.476,0,0,0-.3-.189l-1.072-.207c-.532-.666-1.081-1.313-1.64-1.945l.007,0,.059,0a.5.5,0,0,0,.484-.479.476.476,0,0,0-.191-.384l-1.572-1.674a.484.484,0,0,0-.32-.15l-1.086-.07c-.6-.584-1.231-1.159-1.874-1.724h0a.479.479,0,0,0,.3-.847l-1.829-1.513a.465.465,0,0,0-.334-.109l-1.079.066c-.672-.507-1.368-1-2.076-1.477a.48.48,0,0,0,.189-.881l-2-1.27a.486.486,0,0,0-.345-.066l-1.059.2c-.736-.42-1.488-.82-2.247-1.2a.48.48,0,0,0,.075-.9l-2.147-1.011a.479.479,0,0,0-.35-.023l-1.027.332c-.786-.327-1.583-.627-2.381-.913a.479.479,0,0,0-.036-.9l-2.256-.732a.473.473,0,0,0-.352.02l-.984.461c-.811-.223-1.64-.423-2.479-.607l0,0a.481.481,0,0,0,.241-.5.489.489,0,0,0-.386-.4l-2.329-.443a.478.478,0,0,0-.348.066l-.925.584c-.541-.077-1.077-.15-1.62-.211-.3-.034-.607-.052-.911-.08l.009-.007a.482.482,0,0,0,.173-.523.477.477,0,0,0-.429-.343l-2.367-.148a.468.468,0,0,0-.334.109l-.843.693c-.85-.014-1.7,0-2.544.025l0,0a.485.485,0,0,0,.107-.538.473.473,0,0,0-.47-.286l-2.367.148a.493.493,0,0,0-.32.15l-.741.788c-.841.091-1.683.209-2.524.343a.478.478,0,0,0-.466-.768l-2.329.443a.47.47,0,0,0-.3.191l-.636.868c-.831.2-1.654.423-2.463.661a.478.478,0,0,0-.559-.7l-2.254.732a.479.479,0,0,0-.273.225l-.52.943c-.8.3-1.588.629-2.36.963a.48.48,0,0,0-.1-.536.486.486,0,0,0-.543-.093l-2.145,1.011a.48.48,0,0,0-.243.257l-.4,1.006c-.743.393-1.486.816-2.22,1.256v0a.476.476,0,0,0-.166-.525.482.482,0,0,0-.55-.025l-2,1.27a.481.481,0,0,0-.207.286l-.275,1.059c-.693.486-1.372,1-2.042,1.52V25.48a.48.48,0,0,0-.777-.454l-1.827,1.513a.478.478,0,0,0-.173.309l-.136,1.081c-.627.568-1.238,1.161-1.842,1.765v-.009a.472.472,0,0,0-.288-.466.481.481,0,0,0-.538.111l-1.624,1.729a.5.5,0,0,0-.13.329v1.088c-.554.645-1.088,1.306-1.6,1.972a.48.48,0,0,0-.866-.245l-1.393,1.92a.487.487,0,0,0-.091.343l.134,1.065c-.47.716-.916,1.438-1.347,2.165a.476.476,0,0,0-.884-.127L288.4,41.649a.481.481,0,0,0-.045.35l.263,1.038c-.37.754-.722,1.533-1.063,2.322a.478.478,0,0,0-.436-.32.486.486,0,0,0-.459.3l-.872,2.206a.472.472,0,0,0,0,.352l.4,1c-.275.8-.525,1.615-.761,2.435a.479.479,0,0,0-.9.091l-.591,2.3a.492.492,0,0,0,.043.35l.525.954c-.173.827-.318,1.667-.45,2.51l0-.007a.482.482,0,0,0-.509-.207.487.487,0,0,0-.37.409l-.3,2.351a.484.484,0,0,0,.091.343l.638.884c-.068.841-.109,1.69-.134,2.54l0,0a.481.481,0,0,0-.847.309v2.374a.487.487,0,0,0,.129.327l.738.788c.039.843.1,1.692.184,2.542a.475.475,0,0,0-.541-.07.485.485,0,0,0-.257.486l.3,2.354a.485.485,0,0,0,.17.309l.825.684c.145.831.316,1.667.507,2.5a.478.478,0,0,0-.736.513l.591,2.3a.481.481,0,0,0,.207.286l.9.577c.252.813.529,1.62.818,2.419a.478.478,0,0,0-.668.6l.872,2.206a.484.484,0,0,0,.241.257l.981.463c.348.77.725,1.536,1.113,2.294h0a.478.478,0,0,0-.591.679l1.143,2.076a.47.47,0,0,0,.273.225l1.036.341c.443.727.911,1.436,1.386,2.135l0,0a.481.481,0,0,0-.513.2.475.475,0,0,0,.011.55l1.393,1.92a.476.476,0,0,0,.3.189l1.075.207c.529.666,1.081,1.311,1.64,1.945l-.009,0a.481.481,0,0,0-.4.806l1.624,1.729a.478.478,0,0,0,.32.15l1.086.07c.6.584,1.231,1.159,1.874,1.724h0a.479.479,0,0,0-.3.85l1.827,1.511a.477.477,0,0,0,.336.109l1.079-.066c.672.509,1.37,1,2.076,1.477a.479.479,0,0,0-.191.879l2,1.272a.483.483,0,0,0,.348.066l1.059-.2c.736.42,1.488.82,2.247,1.206a.47.47,0,0,0-.348.416.479.479,0,0,0,.273.477l2.145,1.011a.485.485,0,0,0,.352.023l1.027-.332c.784.325,1.581.627,2.381.913a.475.475,0,0,0-.3.459.48.48,0,0,0,.332.438l2.254.734a.484.484,0,0,0,.352-.023l.984-.459c.818.223,1.647.42,2.481.6l-.007,0a.48.48,0,0,0,.145.891l2.329.443a.478.478,0,0,0,.348-.066l.927-.586c.538.077,1.077.152,1.617.214.307.034.609.052.913.079l-.011.007a.481.481,0,0,0,.257.866l2.367.148a.466.466,0,0,0,.334-.107l.845-.7c.309,0,.618.009.927.009.541,0,1.084-.027,1.627-.045l-.014.014a.479.479,0,0,0,.332.827l.029,0,2.367-.148a.478.478,0,0,0,.32-.15l.743-.788c.838-.091,1.681-.209,2.524-.343a.477.477,0,0,0,.463.768l2.329-.443a.477.477,0,0,0,.3-.189l.636-.872c.827-.2,1.649-.42,2.465-.659a.478.478,0,0,0,.557.7l2.256-.734a.486.486,0,0,0,.273-.225l.518-.943c.807-.3,1.593-.629,2.363-.965a.479.479,0,0,0,.641.632l2.147-1.011a.484.484,0,0,0,.241-.257l.4-1.006c.747-.4,1.49-.82,2.222-1.256l0,0a.48.48,0,0,0,.166.525.475.475,0,0,0,.55.025l2-1.272a.464.464,0,0,0,.209-.284l.275-1.059c.691-.486,1.37-1,2.042-1.52l0,.009a.485.485,0,0,0,.229.5.476.476,0,0,0,.548-.045l1.829-1.511a.486.486,0,0,0,.17-.309l.139-1.086c.627-.568,1.236-1.159,1.84-1.763v.009a.478.478,0,0,0,.827.354l1.624-1.729a.488.488,0,0,0,.13-.329V98.216c.554-.645,1.088-1.306,1.6-1.972a.479.479,0,0,0,.866.245l1.395-1.92a.482.482,0,0,0,.089-.341l-.134-1.07c.473-.713.918-1.438,1.347-2.163a.478.478,0,0,0,.886.127l1.14-2.076a.472.472,0,0,0,.045-.35l-.263-1.038c.373-.756.722-1.536,1.063-2.324a.477.477,0,0,0,.9.018l.872-2.206a.472.472,0,0,0,0-.352l-.4-1c.275-.8.525-1.615.761-2.435a.479.479,0,0,0,.9-.091l.591-2.3a.492.492,0,0,0-.043-.35l-.525-.956c.173-.825.32-1.665.45-2.508l0,.007a.48.48,0,0,0,.879-.2l.3-2.354a.486.486,0,0,0-.089-.343l-.641-.884c.068-.841.109-1.69.134-2.54l0,0a.48.48,0,0,0,.847-.309V64.159a.487.487,0,0,0-.129-.327m-12.983,4.982A38.661,38.661,0,0,1,334,103.743c-1.161,0-2.338-.055-3.5-.159a38.438,38.438,0,0,1-34.767-41.705A38.661,38.661,0,0,1,333.941,26.95c1.161,0,2.338.055,3.5.159a38.436,38.436,0,0,1,34.767,41.705" transform="translate(468.43 1874.833)" fill="#5caa9b"/>
    <path id="Path_26721" data-name="Path 26721" d="M308.861,33.9a6.494,6.494,0,1,0,6.493,6.493,6.5,6.5,0,0,0-6.493-6.493m0,11.875a5.381,5.381,0,1,1,5.38-5.382,5.389,5.389,0,0,1-5.38,5.382" transform="translate(493.54 1900.11)" fill="#d6e5e1"/>
  </g>
</svg>
